<?xml version="1.0" standalone="no"?>
<!DOCTYPE svg PUBLIC "-//W3C//DTD SVG 20010904//EN"
 "http://www.w3.org/TR/2001/REC-SVG-20010904/DTD/svg10.dtd">
<svg version="1.0" xmlns="http://www.w3.org/2000/svg"
 width="100.000000pt" height="50.000000pt" viewBox="0 0 7112.000000 7112.000000"
 preserveAspectRatio="xMidYMid meet">
<metadata>
Created by potrace 1.16, written by Peter Selinger 2001-2019
</metadata>
<g transform="translate(0.000000,7112.000000) scale(0.100000,-0.100000)"
fill="#FFF" stroke="none">
<path d="M16085 45302 c-593 -1533 -1137 -2938 -1208 -3122 -70 -184 -141
-366 -157 -405 -15 -38 -47 -122 -71 -185 -23 -63 -60 -155 -82 -205 -21 -49
-68 -173 -104 -275 -66 -189 -349 -862 -431 -1025 -24 -49 -59 -112 -77 -140
-17 -27 -39 -72 -48 -100 -21 -61 -125 -243 -184 -322 -24 -32 -43 -63 -43
-70 0 -7 -15 -30 -33 -50 -18 -21 -52 -63 -75 -95 -59 -77 -202 -213 -292
-277 -41 -30 -115 -73 -165 -96 -199 -94 -308 -125 -637 -180 l-98 -17 0 -219
0 -219 2220 0 2220 0 0 204 0 205 -57 6 c-284 34 -638 129 -837 226 -235 114
-347 302 -371 624 -9 116 14 288 59 455 18 69 39 148 46 175 12 51 44 152 74
235 8 25 25 79 36 120 12 41 35 104 52 140 16 35 36 85 43 110 7 25 104 289
216 588 l204 542 1555 0 1555 0 320 -847 c176 -466 328 -876 339 -912 10 -36
24 -73 31 -81 7 -8 22 -49 34 -90 12 -41 28 -91 36 -110 19 -49 45 -136 45
-150 0 -7 7 -26 15 -44 21 -43 38 -182 36 -291 -2 -162 -45 -272 -142 -367
-142 -138 -600 -309 -839 -312 -47 -1 -97 2 -112 7 l-28 7 0 -220 0 -220 2315
0 2315 0 0 205 c0 172 -2 205 -14 205 -8 0 -68 7 -133 15 -285 37 -533 122
-698 240 -69 49 -177 159 -222 225 -202 299 -512 938 -623 1285 -13 39 -671
1722 -1463 3740 -791 2019 -1457 3716 -1479 3773 l-40 102 -962 0 -961 0
-1080 -2788z m2377 -975 l666 -1732 -659 -3 c-362 -1 -955 -1 -1317 0 l-659 3
646 1732 c355 953 648 1733 651 1733 3 0 305 -780 672 -1733z"/>
<path d="M25140 47870 c0 -220 0 -220 23 -225 126 -28 168 -36 272 -50 458
-61 747 -218 835 -453 58 -154 108 -404 132 -667 19 -200 19 -6561 1 -6740
-26 -246 -103 -501 -186 -618 -56 -78 -166 -182 -240 -226 -137 -81 -396 -141
-609 -141 -75 0 -156 -3 -182 -6 l-46 -7 0 -219 0 -219 3018 4 c2124 3 3064 7
3177 15 452 32 658 55 995 108 274 43 452 81 630 135 495 148 1051 456 1500
830 635 528 1080 1209 1364 2086 244 754 315 1555 206 2323 -91 641 -242 1137
-510 1671 -203 406 -375 676 -593 933 -319 375 -648 655 -1027 876 -640 372
-1322 574 -2390 709 -312 40 -467 50 -939 62 -218 5 -423 15 -456 21 -43 8
-760 12 -2517 15 l-2458 3 0 -220z m4949 -400 c47 -5 153 -17 235 -25 256 -27
480 -71 741 -146 626 -180 1021 -369 1395 -668 119 -96 364 -339 454 -451 158
-198 315 -461 425 -711 162 -369 329 -992 391 -1459 43 -318 51 -1077 15
-1430 -100 -996 -390 -1769 -903 -2411 -128 -160 -338 -374 -480 -487 -611
-487 -1407 -745 -2462 -797 -103 -5 -146 -3 -245 15 -66 12 -176 30 -245 40
-274 41 -509 109 -617 179 -83 54 -175 157 -217 243 -43 89 -84 228 -96 328
-5 41 -15 120 -22 175 -19 150 -19 6464 0 6580 45 266 125 561 179 652 56 97
191 176 433 256 206 68 346 93 665 120 91 8 274 6 354 -3z"/>
<path d="M39992 44983 c-662 -1710 -1212 -3130 -1223 -3158 -12 -27 -45 -113
-73 -190 -29 -77 -78 -198 -108 -270 -30 -71 -61 -148 -68 -170 -75 -239 -409
-1027 -508 -1199 -35 -61 -70 -131 -79 -156 -17 -53 -71 -147 -158 -280 -34
-52 -68 -106 -75 -119 -6 -13 -47 -67 -89 -120 -150 -185 -318 -321 -501 -401
-205 -91 -268 -108 -602 -165 l-98 -17 0 -219 0 -219 2220 0 2220 0 0 204 0
204 -52 7 c-300 38 -608 118 -822 215 -233 104 -353 282 -387 571 -19 171 5
367 75 603 19 61 37 131 40 155 4 25 20 74 36 111 16 36 34 88 40 116 15 67
43 148 73 214 14 30 31 75 39 100 9 25 106 289 218 588 l203 542 1556 -2 1556
-3 318 -840 c174 -462 327 -874 339 -915 12 -41 28 -79 35 -83 7 -4 13 -14 13
-21 0 -8 23 -81 50 -164 28 -83 50 -159 50 -169 0 -10 7 -28 14 -39 16 -23 36
-186 36 -295 0 -147 -47 -267 -141 -360 -47 -46 -89 -73 -199 -127 -156 -78
-237 -108 -425 -153 -132 -31 -269 -43 -327 -26 l-28 7 0 -220 0 -220 2310 0
2310 0 0 204 0 203 -132 17 c-162 22 -367 73 -485 121 -199 82 -349 207 -468
390 -99 152 -212 356 -305 549 -103 214 -270 604 -270 631 0 11 -4 25 -9 31
-5 5 -14 27 -20 49 -6 22 -678 1740 -1493 3818 l-1482 3777 -961 0 -960 0
-1203 -3107z m2502 -668 l663 -1720 -658 -3 c-363 -1 -956 -1 -1318 0 l-659 3
646 1734 c431 1155 649 1729 655 1720 5 -8 307 -788 671 -1734z"/>
<path d="M48592 46824 c-221 -697 -401 -1268 -400 -1270 5 -4 1071 -205 1073
-202 1 2 28 50 60 108 238 431 570 862 893 1157 507 463 1021 725 1627 828
191 33 262 34 343 6 152 -52 205 -130 250 -366 15 -83 17 -343 20 -3550 2
-2367 0 -3485 -7 -3540 -6 -44 -18 -165 -26 -270 -19 -217 -31 -283 -75 -410
-70 -198 -135 -300 -243 -381 -78 -59 -131 -85 -235 -118 -157 -49 -285 -66
-511 -66 -113 0 -250 -3 -303 -7 l-98 -6 0 -219 0 -218 2520 0 2520 0 0 225 0
225 -317 0 c-297 0 -326 2 -433 24 -220 46 -372 108 -454 184 -77 73 -171 220
-210 330 -36 102 -73 291 -87 452 -18 189 -25 7096 -9 7280 14 148 36 262 60
310 26 51 77 95 145 127 52 24 71 28 140 26 155 -3 462 -74 692 -158 232 -86
566 -270 783 -431 492 -365 917 -831 1216 -1333 52 -86 97 -162 101 -169 6
-10 122 5 553 73 299 47 546 88 548 90 3 3 -165 539 -373 1192 -208 654 -389
1223 -402 1266 l-24 77 -4467 0 -4467 0 -403 -1266z"/>
<path d="M14335 36119 c-1574 -145 -2962 -1033 -3745 -2394 -84 -146 -237
-461 -295 -610 -500 -1269 -447 -2669 146 -3880 538 -1100 1485 -1967 2614
-2395 807 -305 1725 -388 2575 -231 811 150 1556 499 2205 1035 156 129 504
479 628 631 434 535 741 1121 913 1744 39 143 45 260 18 365 -83 323 -414 519
-738 436 -104 -26 -187 -72 -266 -147 -92 -86 -125 -148 -182 -336 -126 -412
-293 -756 -528 -1089 l-65 -92 -3 1742 -2 1742 -415 0 -415 0 0 -2138 0 -2137
-87 -55 c-47 -30 -90 -56 -95 -58 -4 -2 -8 753 -8 1677 l0 1681 -415 0 -415 0
0 -1864 0 -1863 -92 -25 -93 -25 -3 1379 -2 1378 -415 0 -415 0 0 -1425 0
-1425 -84 0 c-46 0 -91 3 -100 6 -14 6 -16 95 -16 915 l0 909 -410 0 -410 0 0
-836 0 -836 -30 6 c-72 14 -320 114 -495 201 -221 108 -396 215 -583 357 -116
87 -133 104 -127 122 4 11 45 348 90 747 45 399 85 731 89 738 4 6 17 11 30
11 37 0 142 58 189 104 24 23 56 62 70 87 29 50 57 146 57 199 l0 35 539 180
539 179 47 -52 c149 -166 418 -173 586 -15 151 141 172 374 49 545 -38 54
-146 138 -176 138 -9 0 -12 9 -9 28 3 15 30 281 60 592 30 311 58 580 62 599
7 30 14 35 63 50 30 10 73 29 95 43 50 32 120 107 142 153 14 30 21 35 43 31
14 -3 155 -24 315 -47 159 -22 291 -41 291 -42 1 -1 9 -29 19 -62 23 -80 55
-133 116 -190 242 -227 636 -90 691 239 19 114 -17 243 -91 328 l-28 33 316
569 316 568 60 -6 c69 -7 173 12 232 42 168 86 258 293 208 477 -48 179 -191
294 -376 303 -107 5 -173 -12 -257 -68 -69 -46 -124 -115 -155 -193 -15 -39
-20 -75 -21 -147 0 -110 21 -177 81 -255 36 -48 36 -48 19 -79 -9 -17 -150
-271 -314 -565 l-297 -533 -105 -2 c-96 -1 -111 -4 -172 -33 -76 -36 -155
-108 -187 -172 -20 -39 -24 -41 -54 -36 -41 7 -588 85 -597 85 -4 0 -10 17
-14 38 -10 63 -63 160 -114 210 -165 161 -432 155 -591 -13 -74 -78 -104 -149
-109 -256 -9 -175 72 -322 213 -391 36 -18 45 -27 45 -47 0 -63 -120 -1215
-127 -1221 -5 -4 -28 -12 -53 -19 -134 -38 -248 -165 -279 -309 -6 -29 -11
-66 -11 -82 l0 -28 -537 -179 -538 -180 -48 53 c-88 97 -237 148 -367 126
-279 -50 -428 -342 -304 -596 33 -67 106 -144 169 -177 25 -13 45 -31 45 -39
1 -27 -141 -1315 -147 -1330 -6 -20 -199 179 -331 343 -404 503 -669 1109
-761 1742 -110 753 34 1545 405 2220 462 841 1247 1468 2172 1734 260 74 471
108 882 140 138 10 210 32 296 92 101 69 184 178 224 292 31 87 39 267 16 357
-44 177 -161 324 -317 398 -46 22 -108 45 -137 51 -60 12 -273 12 -407 0z"/>
<path d="M3575 35623 c-1386 -89 -2433 -675 -2908 -1628 -149 -300 -216 -571
-224 -917 -8 -318 24 -551 112 -816 251 -752 888 -1261 2082 -1661 417 -140
635 -198 2168 -574 685 -168 1048 -275 1375 -404 681 -268 1000 -591 1096
-1108 15 -80 19 -146 19 -330 -1 -211 -3 -241 -28 -356 -84 -394 -273 -726
-589 -1034 -344 -336 -775 -565 -1243 -660 -420 -85 -925 -47 -1385 105 -763
251 -1494 805 -2163 1640 -280 349 -578 797 -751 1128 -21 39 -41 72 -45 72
-74 -6 -1083 -138 -1088 -143 -5 -6 778 -2773 934 -3299 l14 -48 552 0 552 0
59 178 c32 97 62 187 67 199 8 22 12 21 161 -52 592 -291 1283 -451 2223 -516
244 -17 968 -18 1155 -1 349 32 612 74 909 148 1137 283 1958 906 2368 1798
241 527 342 1194 263 1747 -126 876 -727 1491 -1887 1927 -482 182 -888 293
-1988 547 -843 194 -1211 288 -1530 392 -792 256 -1210 562 -1354 990 -42 123
-54 233 -48 428 13 422 140 730 411 1000 175 174 382 298 641 384 248 82 463
114 780 114 460 1 828 -94 1289 -331 670 -346 1378 -1009 1931 -1810 54 -80
82 -112 94 -110 9 3 240 49 514 104 429 85 497 101 495 116 -2 9 -201 595
-443 1302 l-440 1286 -552 0 -552 0 -10 -37 c-5 -21 -19 -76 -31 -123 -11 -47
-23 -90 -25 -97 -2 -7 -49 4 -142 34 -694 224 -1425 369 -2077 412 -143 10
-634 12 -761 4z"/>
<path d="M54620 35619 c-389 -9 -612 -30 -908 -85 -638 -117 -1237 -372 -1744
-741 -381 -278 -748 -645 -1056 -1058 -626 -837 -965 -1723 -1064 -2780 -17
-184 -17 -831 0 -1025 101 -1130 462 -2049 1117 -2842 208 -252 534 -562 805
-764 638 -478 1381 -778 2225 -898 382 -55 976 -76 1572 -58 383 12 569 26
813 63 680 103 1339 343 1837 671 572 377 1023 830 1434 1438 83 124 218 355
211 361 -9 8 -1193 322 -1197 317 -1 -2 -39 -62 -84 -135 -350 -567 -835
-1050 -1431 -1427 -379 -241 -807 -417 -1226 -505 -410 -87 -614 -85 -1044 10
-498 110 -945 320 -1325 624 -129 102 -427 400 -537 535 -393 485 -657 1149
-808 2036 -53 308 -61 433 -67 1005 -5 444 -3 549 11 675 9 82 25 241 36 354
81 822 376 1669 776 2230 488 684 1184 1128 1941 1236 197 28 416 15 693 -42
744 -153 1475 -642 1888 -1264 38 -58 97 -141 131 -185 33 -44 109 -161 167
-260 59 -99 137 -229 174 -290 76 -123 133 -227 305 -555 65 -124 137 -254
160 -290 24 -36 54 -89 69 -117 l26 -53 520 0 c492 0 520 1 520 18 0 10 -153
786 -340 1724 -187 939 -340 1712 -340 1717 0 8 -161 11 -525 11 l-526 0 -84
-175 -84 -176 -48 34 c-141 100 -410 244 -632 337 -379 160 -905 277 -1451
325 -184 16 -408 17 -910 4z"/>
<path d="M22060 35191 l0 -219 28 -6 c15 -3 100 -17 190 -31 263 -40 391 -75
537 -147 148 -73 238 -159 296 -283 32 -68 89 -283 114 -428 50 -302 48 -152
52 -3482 4 -3152 3 -3321 -33 -3606 -30 -248 -97 -495 -157 -584 -109 -160
-310 -267 -582 -310 -75 -11 -360 -35 -427 -35 -17 0 -18 -13 -18 -220 l0
-220 2230 0 2230 0 0 221 0 221 -52 -6 c-198 -25 -471 15 -664 95 -149 62
-292 189 -353 314 -50 100 -95 326 -132 660 -17 150 -26 6168 -9 6444 19 323
84 737 139 882 61 161 204 303 385 383 167 74 436 136 590 136 l96 0 0 220 0
220 -2230 0 -2230 0 0 -219z"/>
<path d="M27520 35190 c0 -220 0 -220 23 -225 86 -20 177 -35 267 -45 373 -39
600 -126 751 -287 37 -40 73 -91 89 -128 34 -74 83 -262 109 -415 47 -277 46
-199 46 -3660 0 -3406 0 -3390 -41 -3629 -28 -161 -125 -384 -207 -476 -73
-83 -150 -128 -291 -174 -168 -55 -265 -71 -456 -77 -91 -3 -193 -7 -227 -10
l-63 -6 0 -219 0 -219 4481 2 4480 3 645 1510 c355 831 650 1519 654 1531 8
21 -2 23 -488 104 -273 45 -509 84 -523 87 -24 4 -37 -9 -139 -144 -450 -591
-1009 -1165 -1485 -1524 -768 -580 -1492 -843 -2620 -950 -212 -21 -466 -17
-635 9 -447 69 -648 160 -820 370 -75 93 -109 173 -170 403 -68 260 -64 157
-67 1911 l-3 1587 47 -5 c27 -2 192 -9 368 -14 578 -17 886 -74 1103 -202 31
-18 109 -85 173 -148 214 -212 367 -468 458 -767 30 -101 93 -428 114 -601
l12 -97 538 -3 537 -2 0 2150 0 2150 -322 0 c-335 0 -725 -16 -744 -32 -6 -4
-15 -41 -18 -81 -12 -115 -64 -413 -95 -543 -93 -379 -210 -626 -375 -789 -98
-97 -195 -156 -344 -209 -273 -97 -497 -121 -1055 -111 l-398 8 4 1216 c3
1167 4 1224 25 1404 38 333 109 472 323 634 146 110 205 138 388 183 320 79
358 83 726 84 263 1 361 -3 480 -17 1041 -128 1787 -455 2580 -1133 192 -163
598 -571 785 -786 115 -133 148 -166 165 -163 11 3 244 45 519 95 274 49 500
91 501 92 2 2 -221 582 -494 1290 l-496 1288 -4407 0 -4408 0 0 -220z"/>
<path d="M38360 35191 l0 -219 53 -12 c73 -15 205 -36 322 -50 370 -44 638
-186 739 -391 70 -141 133 -455 155 -771 8 -98 11 -1207 11 -3347 0 -2773 -2
-3222 -15 -3363 -19 -202 -36 -293 -80 -415 -109 -301 -248 -425 -580 -520
l-130 -37 -237 -4 -238 -4 0 -219 0 -219 2040 0 2040 0 0 221 0 222 -67 -7
c-108 -10 -290 -9 -387 4 -429 54 -696 192 -799 412 -40 85 -91 329 -122 582
-34 271 -36 517 -33 3428 l3 2887 2391 -3872 2390 -3872 912 -3 912 -2 0 4107
0 4108 25 175 c44 302 73 395 170 539 93 140 205 229 343 275 80 27 465 106
516 106 15 0 49 7 75 15 25 8 76 18 114 21 l67 6 0 219 0 219 -2055 0 -2055 0
0 -220 c0 -121 3 -220 6 -220 3 0 62 -9 132 -19 70 -11 187 -25 261 -31 437
-36 722 -171 834 -395 49 -97 111 -354 141 -585 36 -275 37 -403 34 -2893 l-3
-2447 -2060 3405 -2060 3405 -1882 0 -1883 0 0 -219z"/>
<path d="M60850 35190 c0 -220 0 -220 23 -225 86 -20 177 -35 267 -45 370 -39
600 -126 751 -287 67 -70 97 -127 133 -248 55 -189 88 -398 106 -670 14 -209
14 -6483 0 -6613 -37 -345 -43 -377 -109 -541 -99 -244 -200 -342 -425 -412
-168 -52 -266 -69 -451 -74 -93 -3 -198 -8 -232 -11 l-63 -6 0 -219 0 -219
4481 2 4481 3 654 1530 c359 842 650 1531 646 1532 -4 1 -239 41 -522 88 -501
84 -515 85 -530 67 -8 -10 -67 -86 -130 -168 -419 -545 -883 -1030 -1324
-1382 -745 -597 -1448 -891 -2431 -1017 -565 -73 -852 -67 -1223 25 -270 68
-412 148 -544 308 -83 101 -112 168 -173 396 -73 276 -69 172 -72 1935 l-3
1583 22 -5 c13 -3 138 -8 278 -12 570 -14 928 -64 1118 -155 112 -54 162 -89
266 -189 198 -191 347 -433 452 -736 34 -98 102 -439 128 -643 l12 -97 537 -3
537 -2 0 2150 0 2150 -352 -1 c-424 -1 -707 -17 -719 -39 -4 -8 -15 -76 -24
-150 -53 -428 -167 -824 -306 -1061 -137 -235 -328 -367 -647 -448 -241 -62
-414 -74 -905 -65 l-398 7 4 1211 c3 1153 5 1220 25 1403 24 215 48 306 112
414 47 80 130 167 230 241 128 96 192 125 369 168 320 79 358 83 726 84 263 1
361 -3 480 -17 1061 -130 1819 -468 2625 -1171 219 -190 608 -591 845 -868
l40 -47 519 94 c285 52 520 96 521 97 2 2 -220 582 -493 1291 l-496 1287
-4408 0 -4408 0 0 -220z"/>
<path d="M18620 28118 c-128 -154 -475 -499 -640 -638 -321 -270 -692 -521
-1015 -686 -63 -32 -114 -64 -113 -71 6 -26 2644 -3296 2708 -3356 421 -398
1079 -438 1542 -95 406 301 581 817 442 1307 -32 115 -119 288 -193 386 -112
150 -2616 3258 -2627 3262 -5 2 -53 -47 -104 -109z"/>
</g>
</svg>
